# xmcd
#
# Track frame offsets:
#	150
#	4930
#	21202
#	35719
#	54985
#	67190
#	86914
#	100164
#	115221
#	133043
#	147406
#	149959
#	169298
#	182762
#	197025
#	213749
#	233145
#	245219
#	247190
#	265055
#	283875
#	298187
#
# Disc length: 4228 seconds
#
# Revision: 1
# Processed by: cddbd v1.4PL0 Copyright (c) Steve Scherf et al.
# Submitted via: EasyCDDAExtractor 5.0.7
#
DISCID=73108216
DTITLE=Various Artist - Gangsta Soul 12
DYEAR=1900
DGENRE=Soul
TTITLE0=Intro: Un tueur de sans  froid !...
TTITLE1=Peaches and Herb: All Your Love (Give It Here)
TTITLE2=Precious Wilson: Stop Runnin
TTITLE3=Spinners: Love Trippin
TTITLE4=Pino Presti: Funky Bump
TTITLE5=Poussez: I'm Never Gonna Give My Love Again
TTITLE6=Gloria Scott: What I Am Gonna Do
TTITLE7=Candi Staton: Young Hearts Run Free
TTITLE8=Tyrone Davis: Wanna Make It Good
TTITLE9=Funky: Funky Stop
TTITLE10=Interlude: Pitié !...
TTITLE11=The Impressions: Fan The Fire
TTITLE12=Revelation: Stand Up
TTITLE13=Moment Of Truth: Helplessey
TTITLE14=Lenny Williams: Look Up With Your Mind
TTITLE15=Jimmy Jackson: Freedom To Express Yourself
TTITLE16=Larry Brown: Breaking Training
TTITLE17=Interlude: Règlement de Comptes
TTITLE18=Ace Spectrum: Without You
TTITLE19=Camouflage: You've Got The Power
TTITLE20=Soirée: Close To You
TTITLE21=Touch Of Class: You Got Now Here To Come
EXTD=
EXTT0=
EXTT1=
EXTT2=
EXTT3=
EXTT4=
EXTT5=
EXTT6=
EXTT7=
EXTT8=
EXTT9=
EXTT10=
EXTT11=
EXTT12=
EXTT13=
EXTT14=
EXTT15=
EXTT16=
EXTT17=
EXTT18=
EXTT19=
EXTT20=
EXTT21=
PLAYORDER=
